<mxfile host="app.diagrams.net" modified="2021-06-29T12:28:44.525Z" agent="5.0 (Windows NT 10.0; Win64; x64) AppleWebKit/537.36 (KHTML, like Gecko) Chrome/91.0.4472.114 Safari/537.36 Edg/91.0.864.59" etag="nGXbqk0No7gXzHPPqlQt" version="14.8.2" type="github">
  <diagram name="Page-1" id="2c0d36ab-eaac-3732-788b-9136903baeff">
    <mxGraphModel dx="963" dy="378" grid="1" gridSize="10" guides="1" tooltips="1" connect="1" arrows="1" fold="1" page="1" pageScale="1.5" pageWidth="1169" pageHeight="827" background="none" math="0" shadow="0">
      <root>
        <mxCell id="0" />
        <mxCell id="1" parent="0" />
        <mxCell id="2" value="Home page" style="rounded=1;fillColor=#23445D;gradientColor=none;strokeColor=none;fontColor=#FFFFFF;fontStyle=1;fontFamily=Tahoma;fontSize=14" parent="1" vertex="1">
          <mxGeometry x="757" y="185.5" width="190" height="80" as="geometry" />
        </mxCell>
        <mxCell id="4" value="Media player page" style="rounded=1;fillColor=#23445D;gradientColor=none;strokeColor=none;fontColor=#FFFFFF;fontStyle=1;fontFamily=Tahoma;fontSize=14" parent="1" vertex="1">
          <mxGeometry x="1159.9999999999998" y="335.5" width="190" height="80" as="geometry" />
        </mxCell>
        <mxCell id="9" value="" style="edgeStyle=elbowEdgeStyle;elbow=vertical;strokeWidth=2;rounded=0" parent="1" source="2" target="4" edge="1">
          <mxGeometry x="337" y="215.5" width="100" height="100" as="geometry">
            <mxPoint x="337" y="315.5" as="sourcePoint" />
            <mxPoint x="437" y="215.5" as="targetPoint" />
          </mxGeometry>
        </mxCell>
        <mxCell id="10" value="Search engine modal" style="rounded=1;fillColor=#23445D;gradientColor=none;strokeColor=none;fontColor=#FFFFFF;fontStyle=1;fontFamily=Tahoma;fontSize=14" parent="1" vertex="1">
          <mxGeometry x="917" y="335.5" width="190" height="80" as="geometry" />
        </mxCell>
        <mxCell id="12" value="Login modal" style="rounded=1;fillColor=#23445D;gradientColor=none;strokeColor=none;fontColor=#FFFFFF;fontStyle=1;fontFamily=Tahoma;fontSize=14" parent="1" vertex="1">
          <mxGeometry x="611.9999999999999" y="335.5" width="190" height="80" as="geometry" />
        </mxCell>
        <mxCell id="13" value="Sign up modal" style="rounded=1;fillColor=#23445D;gradientColor=none;strokeColor=none;fontColor=#FFFFFF;fontStyle=1;fontFamily=Tahoma;fontSize=14" parent="1" vertex="1">
          <mxGeometry x="370" y="335.5" width="190" height="80" as="geometry" />
        </mxCell>
        <mxCell id="44" value="Categories" style="rounded=1;fillColor=#23445D;gradientColor=none;strokeColor=none;fontColor=#FFFFFF;fontStyle=1;fontFamily=Tahoma;fontSize=14" parent="1" vertex="1">
          <mxGeometry x="950" y="440.00000000000006" width="130" height="60" as="geometry" />
        </mxCell>
        <mxCell id="45" value="Languages" style="rounded=1;fillColor=#23445D;gradientColor=none;strokeColor=none;fontColor=#FFFFFF;fontStyle=1;fontFamily=Tahoma;fontSize=14" parent="1" vertex="1">
          <mxGeometry x="950" y="530" width="130" height="60" as="geometry" />
        </mxCell>
        <mxCell id="46" value="Duration" style="rounded=1;fillColor=#23445D;gradientColor=none;strokeColor=none;fontColor=#FFFFFF;fontStyle=1;fontFamily=Tahoma;fontSize=14" parent="1" vertex="1">
          <mxGeometry x="950" y="620" width="130" height="60" as="geometry" />
        </mxCell>
        <mxCell id="59" value="" style="edgeStyle=elbowEdgeStyle;elbow=vertical;strokeWidth=2;rounded=0" parent="1" source="2" target="12" edge="1">
          <mxGeometry x="347" y="225.5" width="100" height="100" as="geometry">
            <mxPoint x="861.9999999999999" y="275.5" as="sourcePoint" />
            <mxPoint x="1466.9999999999998" y="345.5" as="targetPoint" />
          </mxGeometry>
        </mxCell>
        <mxCell id="61" value="" style="edgeStyle=elbowEdgeStyle;elbow=vertical;strokeWidth=2;rounded=0" parent="1" source="2" target="13" edge="1">
          <mxGeometry x="-23" y="135.5" width="100" height="100" as="geometry">
            <mxPoint x="-23" y="235.5" as="sourcePoint" />
            <mxPoint x="77" y="135.5" as="targetPoint" />
          </mxGeometry>
        </mxCell>
        <mxCell id="86" value="" style="edgeStyle=elbowEdgeStyle;elbow=horizontal;strokeWidth=2;rounded=0;entryX=0;entryY=0.5;entryDx=0;entryDy=0;exitX=0;exitY=0.5;exitDx=0;exitDy=0;" parent="1" source="10" target="45" edge="1">
          <mxGeometry x="-290" y="120" width="100" height="100" as="geometry">
            <mxPoint x="1012" y="430" as="sourcePoint" />
            <mxPoint x="950" y="740" as="targetPoint" />
            <Array as="points">
              <mxPoint x="900" y="450" />
              <mxPoint x="930" y="460" />
              <mxPoint x="930" y="450" />
              <mxPoint x="930" y="550" />
              <mxPoint x="930" y="610" />
            </Array>
          </mxGeometry>
        </mxCell>
        <mxCell id="101" value="" style="edgeStyle=elbowEdgeStyle;elbow=vertical;strokeWidth=2;rounded=0" parent="1" source="12" edge="1">
          <mxGeometry x="27" y="135.5" width="100" height="100" as="geometry">
            <mxPoint x="27" y="235.5" as="sourcePoint" />
            <mxPoint x="707" y="455.5" as="targetPoint" />
          </mxGeometry>
        </mxCell>
        <mxCell id="tkc_YWBsjRaRgDbVrPML-124" value="" style="edgeStyle=elbowEdgeStyle;elbow=vertical;strokeWidth=2;rounded=0;entryX=0.5;entryY=0;entryDx=0;entryDy=0;" parent="1" target="10" edge="1">
          <mxGeometry x="337" y="215.5" width="100" height="100" as="geometry">
            <mxPoint x="852" y="265.5" as="sourcePoint" />
            <mxPoint x="1457" y="335.5" as="targetPoint" />
          </mxGeometry>
        </mxCell>
        <mxCell id="tkc_YWBsjRaRgDbVrPML-126" value="Credentials&#xa;form" style="rounded=1;fillColor=#23445D;gradientColor=none;strokeColor=none;fontColor=#FFFFFF;fontStyle=1;fontFamily=Tahoma;fontSize=14" parent="1" vertex="1">
          <mxGeometry x="642" y="455.5" width="130" height="60" as="geometry" />
        </mxCell>
        <mxCell id="tkc_YWBsjRaRgDbVrPML-128" value="" style="edgeStyle=elbowEdgeStyle;elbow=vertical;strokeWidth=2;rounded=0" parent="1" edge="1">
          <mxGeometry x="-215" y="135.5" width="100" height="100" as="geometry">
            <mxPoint x="465" y="415.5" as="sourcePoint" />
            <mxPoint x="465" y="455.5" as="targetPoint" />
          </mxGeometry>
        </mxCell>
        <mxCell id="tkc_YWBsjRaRgDbVrPML-129" value="Personal&#xa;Information&#xa;Form" style="rounded=1;fillColor=#23445D;gradientColor=none;strokeColor=none;fontColor=#FFFFFF;fontStyle=1;fontFamily=Tahoma;fontSize=14" parent="1" vertex="1">
          <mxGeometry x="400" y="455.5" width="130" height="60" as="geometry" />
        </mxCell>
        <mxCell id="tkc_YWBsjRaRgDbVrPML-132" value="" style="edgeStyle=elbowEdgeStyle;elbow=horizontal;strokeWidth=2;rounded=0;entryX=0;entryY=0.5;entryDx=0;entryDy=0;exitX=0;exitY=0.5;exitDx=0;exitDy=0;" parent="1" source="10" target="44" edge="1">
          <mxGeometry x="-323" y="137.75" width="100" height="100" as="geometry">
            <mxPoint x="884" y="393.25" as="sourcePoint" />
            <mxPoint x="917" y="577.75" as="targetPoint" />
            <Array as="points">
              <mxPoint x="900" y="440" />
              <mxPoint x="867" y="467.75" />
              <mxPoint x="897" y="477.75" />
              <mxPoint x="897" y="467.75" />
              <mxPoint x="897" y="567.75" />
              <mxPoint x="897" y="627.75" />
            </Array>
          </mxGeometry>
        </mxCell>
        <mxCell id="tkc_YWBsjRaRgDbVrPML-133" value="" style="edgeStyle=elbowEdgeStyle;elbow=horizontal;strokeWidth=2;rounded=0;entryX=0;entryY=0.5;entryDx=0;entryDy=0;exitX=0;exitY=0.5;exitDx=0;exitDy=0;" parent="1" source="10" target="46" edge="1">
          <mxGeometry x="-280" y="130" width="100" height="100" as="geometry">
            <mxPoint x="927" y="385.5" as="sourcePoint" />
            <mxPoint x="960" y="570" as="targetPoint" />
            <Array as="points">
              <mxPoint x="900" y="440" />
              <mxPoint x="910" y="460" />
              <mxPoint x="940" y="470" />
              <mxPoint x="940" y="460" />
              <mxPoint x="940" y="560" />
              <mxPoint x="940" y="620" />
            </Array>
          </mxGeometry>
        </mxCell>
        <mxCell id="tkc_YWBsjRaRgDbVrPML-134" value="Video" style="rounded=1;fillColor=#23445D;gradientColor=none;strokeColor=none;fontColor=#FFFFFF;fontStyle=1;fontFamily=Tahoma;fontSize=14" parent="1" vertex="1">
          <mxGeometry x="1190" y="440.00000000000006" width="130" height="60" as="geometry" />
        </mxCell>
        <mxCell id="tkc_YWBsjRaRgDbVrPML-135" value="" style="edgeStyle=elbowEdgeStyle;elbow=horizontal;strokeWidth=2;rounded=0;entryX=0;entryY=0.5;entryDx=0;entryDy=0;" parent="1" target="tkc_YWBsjRaRgDbVrPML-134" edge="1">
          <mxGeometry x="-83" y="137.75" width="100" height="100" as="geometry">
            <mxPoint x="1160" y="370" as="sourcePoint" />
            <mxPoint x="1157" y="577.75" as="targetPoint" />
            <Array as="points">
              <mxPoint x="1140" y="440" />
              <mxPoint x="1107" y="467.75" />
              <mxPoint x="1137" y="477.75" />
              <mxPoint x="1137" y="467.75" />
              <mxPoint x="1137" y="567.75" />
              <mxPoint x="1137" y="627.75" />
            </Array>
          </mxGeometry>
        </mxCell>
        <mxCell id="tkc_YWBsjRaRgDbVrPML-136" value="Recomendations" style="rounded=1;fillColor=#23445D;gradientColor=none;strokeColor=none;fontColor=#FFFFFF;fontStyle=1;fontFamily=Tahoma;fontSize=14" parent="1" vertex="1">
          <mxGeometry x="1190" y="530" width="130" height="60" as="geometry" />
        </mxCell>
        <mxCell id="tkc_YWBsjRaRgDbVrPML-137" value="" style="edgeStyle=elbowEdgeStyle;elbow=horizontal;strokeWidth=2;rounded=0;entryX=0;entryY=0.5;entryDx=0;entryDy=0;" parent="1" target="tkc_YWBsjRaRgDbVrPML-136" edge="1">
          <mxGeometry x="-50" y="120" width="100" height="100" as="geometry">
            <mxPoint x="1150" y="370" as="sourcePoint" />
            <mxPoint x="1190" y="740" as="targetPoint" />
            <Array as="points">
              <mxPoint x="1140" y="450" />
              <mxPoint x="1170" y="460" />
              <mxPoint x="1170" y="450" />
              <mxPoint x="1170" y="550" />
              <mxPoint x="1170" y="610" />
            </Array>
          </mxGeometry>
        </mxCell>
        <mxCell id="AEi1qecP61YUrq5khNYl-101" value="Register/Upload&#xa;video" style="rounded=1;fillColor=#23445D;gradientColor=none;strokeColor=none;fontColor=#FFFFFF;fontStyle=1;fontFamily=Tahoma;fontSize=14" vertex="1" parent="1">
          <mxGeometry x="642" y="530" width="130" height="60" as="geometry" />
        </mxCell>
        <mxCell id="AEi1qecP61YUrq5khNYl-102" value="" style="edgeStyle=elbowEdgeStyle;elbow=horizontal;strokeWidth=2;rounded=0;entryX=0;entryY=0.5;entryDx=0;entryDy=0;" edge="1" parent="1" target="AEi1qecP61YUrq5khNYl-101">
          <mxGeometry x="-631" y="227.75" width="100" height="100" as="geometry">
            <mxPoint x="609" y="370" as="sourcePoint" />
            <mxPoint x="609" y="667.75" as="targetPoint" />
            <Array as="points">
              <mxPoint x="592" y="530" />
              <mxPoint x="559" y="557.75" />
              <mxPoint x="589" y="567.75" />
              <mxPoint x="589" y="557.75" />
              <mxPoint x="589" y="657.75" />
              <mxPoint x="589" y="717.75" />
            </Array>
          </mxGeometry>
        </mxCell>
      </root>
    </mxGraphModel>
  </diagram>
</mxfile>
